<?xml version="1.0" encoding="UTF-8" standalone="no"?>
<!-- Created with Inkscape (http://www.inkscape.org/) -->

<svg
   width="64"
   height="64"
   viewBox="0 0 16.933333 16.933333"
   version="1.1"
   id="svg8"
   inkscape:version="1.2.2 (b0a8486541, 2022-12-01)"
   sodipodi:docname="create_blog.svg"
   xmlns:inkscape="http://www.inkscape.org/namespaces/inkscape"
   xmlns:sodipodi="http://sodipodi.sourceforge.net/DTD/sodipodi-0.dtd"
   xmlns="http://www.w3.org/2000/svg"
   xmlns:svg="http://www.w3.org/2000/svg"
   xmlns:rdf="http://www.w3.org/1999/02/22-rdf-syntax-ns#"
   xmlns:cc="http://creativecommons.org/ns#"
   xmlns:dc="http://purl.org/dc/elements/1.1/">
  <defs
     id="defs2">
    <marker
       inkscape:stockid="Arrow1Lstart"
       orient="auto"
       refY="0.0"
       refX="0.0"
       id="marker1178"
       style="overflow:visible"
       inkscape:isstock="true">
      <path
         id="path1176"
         d="M 0.0,0.0 L 5.0,-5.0 L -12.5,0.0 L 5.0,5.0 L 0.0,0.0 z "
         style="fill-rule:evenodd;stroke:black;stroke-width:1pt;stroke-opacity:1"
         transform="scale(0.8) translate(12.5,0)" />
    </marker>
    <marker
       inkscape:stockid="Arrow1Lstart"
       orient="auto"
       refY="0.0"
       refX="0.0"
       id="Arrow1Lstart"
       style="overflow:visible"
       inkscape:isstock="true">
      <path
         id="path900"
         d="M 0.0,0.0 L 5.0,-5.0 L -12.5,0.0 L 5.0,5.0 L 0.0,0.0 z "
         style="fill-rule:evenodd;stroke:black;stroke-width:1pt;stroke-opacity:1"
         transform="scale(0.8) translate(12.5,0)" />
    </marker>
  </defs>
  <sodipodi:namedview
     id="base"
     pagecolor="#ffffff"
     bordercolor="#666666"
     borderopacity="1.0"
     inkscape:pageopacity="0.0"
     inkscape:pageshadow="2"
     inkscape:zoom="13.062661"
     inkscape:cx="27.903962"
     inkscape:cy="32.267545"
     inkscape:document-units="px"
     inkscape:current-layer="g4587-6-3"
     showgrid="false"
     units="px"
     width="64px"
     inkscape:pagecheckerboard="false"
     inkscape:snap-text-baseline="false"
     showguides="true"
     inkscape:guide-bbox="true"
     inkscape:window-width="1920"
     inkscape:window-height="1008"
     inkscape:window-x="0"
     inkscape:window-y="0"
     inkscape:window-maximized="1"
     inkscape:showpageshadow="2"
     inkscape:deskcolor="#d1d1d1">
    <sodipodi:guide
       position="8.4808406,22.749442"
       orientation="1,0"
       id="guide890"
       inkscape:locked="false" />
    <sodipodi:guide
       position="1.905,8.4666665"
       orientation="0,1"
       id="guide892"
       inkscape:locked="false" />
    <sodipodi:guide
       position="3.5671502,6.1539247"
       orientation="1,0"
       id="guide894"
       inkscape:locked="false" />
    <sodipodi:guide
       position="13.446998,8.4666665"
       orientation="1,0"
       id="guide896"
       inkscape:locked="false" />
    <sodipodi:guide
       position="7.9512683,10.664054"
       orientation="1,0"
       id="guide1887"
       inkscape:locked="false" />
    <sodipodi:guide
       position="8.9989648,9.3357244"
       orientation="1,0"
       id="guide1889"
       inkscape:locked="false" />
    <sodipodi:guide
       position="10.514383,15.416106"
       orientation="0,1"
       id="guide1909"
       inkscape:locked="false" />
    <sodipodi:guide
       position="13.429966,2.245064"
       orientation="0,1"
       id="guide1911"
       inkscape:locked="false" />
    <sodipodi:guide
       position="0.92604166,14.47271"
       orientation="0,1"
       id="guide1915"
       inkscape:locked="false" />
    <sodipodi:guide
       position="8.4808406,15.416106"
       orientation="1,0"
       id="guide867"
       inkscape:locked="false" />
    <sodipodi:guide
       position="4.0507405,5.0936687"
       orientation="1,0"
       id="guide1853"
       inkscape:locked="false" />
  </sodipodi:namedview>
  <metadata
     id="metadata5">
    <rdf:RDF>
      <cc:Work
         rdf:about="">
        <dc:format>image/svg+xml</dc:format>
        <dc:type
           rdf:resource="http://purl.org/dc/dcmitype/StillImage" />
      </cc:Work>
    </rdf:RDF>
  </metadata>
  <g
     inkscape:label="Ebene 1"
     inkscape:groupmode="layer"
     id="layer1"
     transform="translate(0,-280.06666)">
    <g
       id="g861">
      <g
         id="g945">
        <g
           id="g959">
          <g
             style="stroke-width:1.08401775;stroke:none;stroke-opacity:1"
             id="g4587-6-3"
             transform="matrix(0.92249414,0,0,0.92249414,0.95346699,22.961023)">
            <path
               inkscape:connector-curvature="0"
               id="path856-3"
               d="m 3.4776083,284.27151 a 0.22403192,0.32622945 0 0 0 0.023151,0.65014 h 6.3895625 a 0.22403192,0.32622945 0 1 0 0,-0.65014 H 3.500759 a 0.22403192,0.32622945 0 0 0 -0.023151,0 z"
               style="color:#000000;font-style:normal;font-variant:normal;font-weight:normal;font-stretch:normal;font-size:medium;line-height:normal;font-family:sans-serif;font-variant-ligatures:normal;font-variant-position:normal;font-variant-caps:normal;font-variant-numeric:normal;font-variant-alternates:normal;font-feature-settings:normal;text-indent:0;text-align:start;text-decoration:none;text-decoration-line:none;text-decoration-style:solid;text-decoration-color:#000000;letter-spacing:normal;word-spacing:normal;text-transform:none;writing-mode:lr-tb;direction:ltr;text-orientation:mixed;dominant-baseline:auto;baseline-shift:baseline;text-anchor:start;white-space:normal;shape-padding:0;clip-rule:nonzero;display:inline;overflow:visible;visibility:visible;isolation:auto;mix-blend-mode:normal;color-interpolation:sRGB;color-interpolation-filters:linearRGB;solid-color:#000000;solid-opacity:1;vector-effect:none;fill:#3e5389;fill-opacity:1;fill-rule:nonzero;stroke:none;stroke-width:0.540634;stroke-linecap:round;stroke-linejoin:miter;stroke-miterlimit:4;stroke-dasharray:none;stroke-dashoffset:0;stroke-opacity:1;color-rendering:auto;image-rendering:auto;shape-rendering:auto;text-rendering:auto;enable-background:accumulate" />
            <path
               inkscape:connector-curvature="0"
               id="rect852"
               d="m 2.6587562,282.19622 c -0.5173592,0 -0.9416545,0.42429 -0.9416545,0.94165 v 9.49198 c 0,0.51736 0.4242953,0.94409 0.9416545,0.94409 H 13.627694 c 0.517359,0 0.944087,-0.42673 0.944087,-0.94409 v -9.49198 c 0,-0.51736 -0.426728,-0.94165 -0.944087,-0.94165 z m 0,0.56694 H 13.627694 c 0.213078,0 0.377148,0.16163 0.377148,0.37471 v 9.49198 c 0,0.21309 -0.16407,0.37714 -0.377148,0.37714 H 2.6587562 c -0.2130779,0 -0.3747152,-0.16405 -0.3747152,-0.37714 v -9.49198 c 0,-0.21308 0.1616373,-0.37471 0.3747152,-0.37471 z"
               style="color:#000000;font-style:normal;font-variant:normal;font-weight:normal;font-stretch:normal;font-size:medium;line-height:normal;font-family:sans-serif;font-variant-ligatures:normal;font-variant-position:normal;font-variant-caps:normal;font-variant-numeric:normal;font-variant-alternates:normal;font-feature-settings:normal;text-indent:0;text-align:start;text-decoration:none;text-decoration-line:none;text-decoration-style:solid;text-decoration-color:#000000;letter-spacing:normal;word-spacing:normal;text-transform:none;writing-mode:lr-tb;direction:ltr;text-orientation:mixed;dominant-baseline:auto;baseline-shift:baseline;text-anchor:start;white-space:normal;shape-padding:0;clip-rule:nonzero;display:inline;overflow:visible;visibility:visible;isolation:auto;mix-blend-mode:normal;color-interpolation:sRGB;color-interpolation-filters:linearRGB;solid-color:#000000;solid-opacity:1;vector-effect:none;fill:#e2e5ed;fill-opacity:1;fill-rule:nonzero;stroke:none;stroke-width:0.566945;stroke-linecap:round;stroke-linejoin:round;stroke-miterlimit:4;stroke-dasharray:none;stroke-dashoffset:74.2677;stroke-opacity:1;paint-order:fill markers stroke;color-rendering:auto;image-rendering:auto;shape-rendering:auto;text-rendering:auto;enable-background:accumulate" />
            <path
               style="fill:#f1f3f9;stroke:#e2e5ed;stroke-width:0.274191px;stroke-linecap:round;stroke-linejoin:miter;stroke-opacity:1;fill-opacity:1"
               d="M 3.4953486,287.61487 H 9.3041565"
               id="path856-3-6"
               inkscape:connector-curvature="0" />
            <path
               style="fill:#f1f3f9;stroke:#e2e5ed;stroke-width:0.282893px;stroke-linecap:round;stroke-linejoin:miter;stroke-opacity:1;fill-opacity:1"
               d="M 3.5235571,291.07018 H 9.7069354"
               id="path856-3-6-75"
               inkscape:connector-curvature="0" />
            <path
               style="fill:#f1f3f9;stroke:#e2e5ed;stroke-width:0.317624px;stroke-linecap:round;stroke-linejoin:miter;stroke-opacity:1;fill-opacity:1"
               d="M 3.5128399,288.77933 H 10.252448"
               id="path856-3-6-7"
               inkscape:connector-curvature="0" />
            <path
               style="fill:#f1f3f9;stroke:#e2e5ed;stroke-width:0.286813px;stroke-linecap:round;stroke-linejoin:miter;stroke-opacity:1;fill-opacity:1"
               d="M 3.5016596,286.49498 H 7.5917433"
               id="path856-3-6-7-5"
               inkscape:connector-curvature="0" />
            <path
               style="fill:#f1f3f9;stroke:#e2e5ed;stroke-width:0.315135px;stroke-linecap:round;stroke-linejoin:miter;stroke-opacity:1;fill-opacity:1"
               d="M 3.5158206,289.92659 H 8.4535612"
               id="path856-3-6-3"
               inkscape:connector-curvature="0" />
            <path
               inkscape:connector-curvature="0"
               d="m 13.835789,283.47474 a 0.21558747,0.21558747 0 0 0 -0.298894,0.0598 l -0.556822,0.83583 1.881197,1.25323 0.556919,-0.83539 a 0.21558747,0.21558747 0 0 0 -0.05991,-0.29932 z m 0.786473,2.50772 -1.881195,-1.25324 -2.197491,3.29855 0.08742,-0.0178 a 0.21558747,0.21558747 0 0 1 0.253753,0.16902 l 0.04237,0.2114 0.21142,-0.0422 a 0.21558747,0.21558747 0 0 1 0.25373,0.16906 l 0.04236,0.21136 0.211394,-0.0422 a 0.21558747,0.21558747 0 0 1 0.253739,0.16903 l 0.04237,0.2114 0.211394,-0.0422 a 0.21558747,0.21558747 0 0 1 0.253728,0.16905 l 0.01762,0.0876 z m -2.524761,3.78978 a 0.21558747,0.21558747 0 0 1 -0.0284,-0.0712 l -0.04236,-0.21138 -0.211407,0.0422 a 0.21558747,0.21558747 0 0 1 -0.25374,-0.16903 l -0.04236,-0.21136 -0.211394,0.0422 a 0.21558747,0.21558747 0 0 1 -0.253727,-0.16905 l -0.04237,-0.21139 -0.211408,0.0422 a 0.21558747,0.21558747 0 0 1 -0.253728,-0.16903 l -0.04236,-0.21139 -0.211393,0.0422 a 0.2151563,0.2151563 0 0 1 -0.07647,0.002 l -0.06054,0.0904 a 0.21558747,0.21558747 0 0 0 -0.03225,0.0804 l -0.422075,2.28327 a 0.21558747,0.21558747 0 0 0 0.329849,0.21973 l 1.944497,-1.26901 a 0.21558747,0.21558747 0 0 0 0.06188,-0.0606 l 0.06013,-0.0904 z"
               id="path2"
               style="fill:#3e5389;fill-opacity:1;stroke-width:0.304003" />
          </g>
        </g>
      </g>
    </g>
  </g>
  <style
     id="style817"
     type="text/css">
	.st0{fill:#FFFFFF;}
	.st1{fill:none;}
	.st2{fill:#3E5389;}
</style>
</svg>
